<svg width="18" height="16" viewBox="0 0 18 16" fill="none" xmlns="http://www.w3.org/2000/svg">
<path d="M0 8.00004C0 7.73483 0.105357 7.48047 0.292893 7.29294C0.48043 7.1054 0.734784 7.00004 1 7.00004H14.586L9.292 1.70804C9.19903 1.61507 9.12527 1.50469 9.07495 1.38321C9.02464 1.26173 8.99874 1.13153 8.99874 1.00004C8.99874 0.868555 9.02464 0.738355 9.07495 0.616876C9.12527 0.495397 9.19903 0.385018 9.292 0.292042C9.38498 0.199066 9.49535 0.125314 9.61683 0.074996C9.73831 0.0246778 9.86851 -0.00122071 10 -0.0012207C10.1315 -0.0012207 10.2617 0.0246778 10.3832 0.074996C10.5046 0.125314 10.615 0.199066 10.708 0.292042L17.708 7.29204C17.8011 7.38493 17.875 7.49528 17.9254 7.61678C17.9758 7.73827 18.0018 7.86851 18.0018 8.00004C18.0018 8.13158 17.9758 8.26182 17.9254 8.38331C17.875 8.5048 17.8011 8.61515 17.708 8.70804L10.708 15.708C10.5202 15.8958 10.2656 16.0013 10 16.0013C9.73445 16.0013 9.47977 15.8958 9.292 15.708C9.10423 15.5203 8.99874 15.2656 8.99874 15C8.99874 14.7345 9.10423 14.4798 9.292 14.292L14.586 9.00004H1C0.734784 9.00004 0.48043 8.89469 0.292893 8.70715C0.105357 8.51961 0 8.26526 0 8.00004Z" fill="#C84771"/>
</svg>
