<svg width="24" height="24" viewBox="0 0 24 24" fill="none" xmlns="http://www.w3.org/2000/svg">
<path d="M19.4972 7.98903L12.0002 15.297L4.50324 7.98903C4.36929 7.85819 4.18948 7.78495 4.00224 7.78495C3.815 7.78495 3.63518 7.85819 3.50124 7.98903C3.43638 8.05257 3.38485 8.12842 3.34968 8.21213C3.3145 8.29584 3.29639 8.38573 3.29639 8.47653C3.29639 8.56733 3.3145 8.65721 3.34968 8.74092C3.38485 8.82463 3.43638 8.90048 3.50124 8.96403L11.4767 16.74C11.6168 16.8765 11.8046 16.953 12.0002 16.953C12.1958 16.953 12.3837 16.8765 12.5237 16.74L20.4992 8.96553C20.5646 8.90193 20.6165 8.8259 20.6519 8.74191C20.6874 8.65792 20.7056 8.56769 20.7056 8.47653C20.7056 8.38537 20.6874 8.29513 20.6519 8.21114C20.6165 8.12715 20.5646 8.05112 20.4992 7.98753C20.3653 7.85669 20.1855 7.78345 19.9982 7.78345C19.811 7.78345 19.6312 7.85669 19.4972 7.98753V7.98903Z" fill="#E4897B"/>
</svg>
