<svg width="218" height="218" viewBox="0 0 218 218" fill="none" xmlns="http://www.w3.org/2000/svg">
<path fill-rule="evenodd" clip-rule="evenodd" d="M67.7471 156.688C67.7471 154.881 68.4648 153.148 69.7424 151.87C71.02 150.593 72.7528 149.875 74.5596 149.875H197.185C198.991 149.875 200.724 150.593 202.002 151.87C203.279 153.148 203.997 154.881 203.997 156.688C203.997 158.494 203.279 160.227 202.002 161.505C200.724 162.782 198.991 163.5 197.185 163.5H74.5596C72.7528 163.5 71.02 162.782 69.7424 161.505C68.4648 160.227 67.7471 158.494 67.7471 156.688ZM67.7471 102.188C67.7471 100.381 68.4648 98.6479 69.7424 97.3703C71.02 96.0927 72.7528 95.375 74.5596 95.375H197.185C198.991 95.375 200.724 96.0927 202.002 97.3703C203.279 98.6479 203.997 100.381 203.997 102.188C203.997 103.994 203.279 105.727 202.002 107.005C200.724 108.282 198.991 109 197.185 109H74.5596C72.7528 109 71.02 108.282 69.7424 107.005C68.4648 105.727 67.7471 103.994 67.7471 102.188ZM67.7471 47.6875C67.7471 45.8807 68.4648 44.1479 69.7424 42.8703C71.02 41.5927 72.7528 40.875 74.5596 40.875H197.185C198.991 40.875 200.724 41.5927 202.002 42.8703C203.279 44.1479 203.997 45.8807 203.997 47.6875C203.997 49.4943 203.279 51.2271 202.002 52.5047C200.724 53.7823 198.991 54.5 197.185 54.5H74.5596C72.7528 54.5 71.02 53.7823 69.7424 52.5047C68.4648 51.2271 67.7471 49.4943 67.7471 47.6875Z" fill="white"/>
<path d="M23.3396 161.661V155.202H27.25C30.2066 155.202 32.1959 153.336 32.1959 150.883C32.1959 148.363 30.0431 146.66 27.2773 146.66C24.2389 146.66 22.2769 148.731 22.1951 150.883H14.1564C14.3744 144.52 19.2385 140.16 27.5906 140.16C35.6021 140.133 40.5889 144.125 40.6298 149.739C40.6556 151.664 39.9952 153.536 38.767 155.019C37.5387 156.502 35.8227 157.499 33.9263 157.832V158.282C36.0764 158.442 38.082 159.425 39.5259 161.026C40.9698 162.628 41.7409 164.724 41.6789 166.879C41.7197 174.141 34.8391 177.779 27.359 177.779C18.421 177.779 13.734 172.738 13.625 166.961H21.5548C21.6638 169.386 24.089 171.13 27.3045 171.171C30.7652 171.171 33.0815 169.195 33.0543 166.402C33.027 163.745 30.9424 161.661 27.4135 161.661H23.326H23.3396ZM23.2851 97.6368H15.0556V97.1599C15.0556 91.6009 19.075 85.6604 28.1084 85.6604C36.0518 85.6604 41.1884 90.1022 41.1884 95.9609C41.1884 101.261 37.6867 104.368 34.7029 107.515L27.3862 115.308V115.717H41.747V122.625H15.5734V117.243L28.6125 103.754C30.4927 101.82 32.6046 99.6124 32.6046 96.8329C32.6046 94.3804 30.6018 92.4729 27.9449 92.4729C27.3315 92.4504 26.72 92.5537 26.1481 92.7765C25.5762 92.9992 25.056 93.3367 24.6194 93.7682C24.1829 94.1996 23.8393 94.7158 23.6098 95.2851C23.3803 95.8544 23.2698 96.4646 23.2851 97.0782V97.6368ZM34.9345 68.125H26.2826V39.8395H25.8603L17.7125 45.562V37.8367L26.2826 31.8008H34.9345V68.125Z" fill="white"/>
</svg>
