<svg width="46" height="41" viewBox="0 0 46 41" fill="none" xmlns="http://www.w3.org/2000/svg">
<path d="M41 41C42.1935 41 43.3381 40.5259 44.182 39.682C45.0259 38.8381 45.5 37.6935 45.5 36.5V25.511C45.5 24.3175 45.0259 23.1729 44.182 22.329C43.3381 21.4851 42.1935 21.011 41 21.011H34.754C34.754 19.4315 34.8485 17.8475 35.033 16.268C35.312 14.594 35.78 13.1045 36.428 11.804C37.0805 10.499 37.9175 9.4775 38.9436 8.7305C39.965 7.8935 41.2655 7.475 42.8495 7.475V0.5C40.244 0.5 37.967 1.058 36.0095 2.174C34.0691 3.27869 32.4007 4.80403 31.127 6.638C29.8487 8.65991 28.9065 10.8756 28.337 13.199C27.7632 15.7629 27.4824 18.3837 27.5 21.011V36.5C27.5 37.6935 27.9742 38.8381 28.8181 39.682C29.662 40.5259 30.8066 41 32 41H41ZM14 41C15.1935 41 16.3381 40.5259 17.182 39.682C18.0259 38.8381 18.5 37.6935 18.5 36.5V25.511C18.5 24.3175 18.0259 23.1729 17.182 22.329C16.3381 21.4851 15.1935 21.011 14 21.011H7.75405C7.75405 19.4315 7.84855 17.8475 8.03305 16.268C8.31205 14.594 8.78005 13.1045 9.42805 11.804C10.0805 10.499 10.9175 9.4775 11.9435 8.7305C12.965 7.8935 14.2655 7.475 15.8495 7.475V0.5C13.244 0.5 10.967 1.058 9.00955 2.174C7.06909 3.27869 5.40074 4.80403 4.12705 6.638C2.84871 8.65991 1.9065 10.8756 1.33705 13.199C0.763234 15.7629 0.482435 18.3837 0.500047 21.011V36.5C0.500047 37.6935 0.974153 38.8381 1.81807 39.682C2.66198 40.5259 3.80657 41 5.00005 41H14Z" fill="#D78979"/>
</svg>
