<svg width="189" height="189" viewBox="0 0 189 189" fill="none" xmlns="http://www.w3.org/2000/svg">
<path d="M94.5 47.25L105.793 69.1208L129.938 72.6292L112.219 88.5938L118.125 112.219L94.5 98.9297L70.875 112.219L76.7812 88.5938L59.0625 72.6292L83.8687 69.1208L94.5 47.25Z" fill="white"/>
<path d="M104.753 177.188L94.5 171.281L118.125 129.938H153.562C155.114 129.94 156.652 129.636 158.086 129.043C159.52 128.45 160.823 127.58 161.92 126.483C163.018 125.386 163.888 124.082 164.481 122.648C165.073 121.214 165.377 119.677 165.375 118.125V47.25C165.377 45.6981 165.073 44.161 164.481 42.7268C163.888 41.2926 163.018 39.9895 161.92 38.8921C160.823 37.7947 159.52 36.9247 158.086 36.3319C156.652 35.7391 155.114 35.4352 153.562 35.4375H35.4375C33.8856 35.4352 32.3485 35.7391 30.9143 36.3319C29.4801 36.9247 28.177 37.7947 27.0796 38.8921C25.9822 39.9895 25.1122 41.2926 24.5194 42.7268C23.9266 44.161 23.6227 45.6981 23.625 47.25V118.125C23.6227 119.677 23.9266 121.214 24.5194 122.648C25.1122 124.082 25.9822 125.386 27.0796 126.483C28.177 127.58 29.4801 128.45 30.9143 129.043C32.3485 129.636 33.8856 129.94 35.4375 129.938H88.5938V141.75H35.4375C29.1718 141.75 23.1627 139.261 18.7321 134.83C14.3016 130.4 11.8125 124.391 11.8125 118.125V47.25C11.8117 44.1473 12.4223 41.0749 13.6093 38.2082C14.7963 35.3415 16.5364 32.7368 18.7304 30.5429C20.9243 28.3489 23.529 26.6088 26.3957 25.4218C29.2624 24.2348 32.3348 23.6242 35.4375 23.625H153.562C156.665 23.6242 159.738 24.2348 162.604 25.4218C165.471 26.6088 168.076 28.3489 170.27 30.5429C172.464 32.7368 174.204 35.3415 175.391 38.2082C176.578 41.0749 177.188 44.1473 177.188 47.25V118.125C177.188 124.391 174.698 130.4 170.268 134.83C165.837 139.261 159.828 141.75 153.562 141.75H125.006L104.753 177.188Z" fill="white"/>
</svg>
