<svg width="199" height="199" viewBox="0 0 199 199" fill="none" xmlns="http://www.w3.org/2000/svg">
<path d="M16.5833 29.0208H182.417M16.5833 95.3541H62.1874M16.5833 161.687H62.1874" stroke="white" stroke-width="10" stroke-linecap="round"/>
<path d="M130.594 140.958C139.94 140.958 148.903 137.245 155.512 130.637C162.12 124.028 165.833 115.065 165.833 105.719C165.833 96.3725 162.12 87.4091 155.512 80.8004C148.903 74.1917 139.94 70.479 130.594 70.479C121.247 70.479 112.284 74.1917 105.675 80.8004C99.0667 87.4091 95.354 96.3725 95.354 105.719C95.354 115.065 99.0667 124.028 105.675 130.637C112.284 137.245 121.247 140.958 130.594 140.958Z" stroke="white" stroke-width="10"/>
<path d="M153.396 132.667L182.417 161.895" stroke="white" stroke-width="10" stroke-linecap="round"/>
</svg>
