<svg id="visual" viewBox="0 0 900 600" width="900" height="600" xmlns="http://www.w3.org/2000/svg" xmlns:xlink="http://www.w3.org/1999/xlink" version="1.1"><path d="M0 303L21.5 297C43 291 86 279 128.8 268.3C171.7 257.7 214.3 248.3 257.2 251.5C300 254.7 343 270.3 385.8 289.5C428.7 308.7 471.3 331.3 514.2 323.8C557 316.3 600 278.7 642.8 275.7C685.7 272.7 728.3 304.3 771.2 315.7C814 327 857 318 878.5 313.5L900 309L900 601L878.5 601C857 601 814 601 771.2 601C728.3 601 685.7 601 642.8 601C600 601 557 601 514.2 601C471.3 601 428.7 601 385.8 601C343 601 300 601 257.2 601C214.3 601 171.7 601 128.8 601C86 601 43 601 21.5 601L0 601Z" fill="#c84771" stroke-linecap="round" stroke-linejoin="miter"></path></svg>