<svg id="visual" viewBox="0 0 900 600" width="900" height="600" xmlns="http://www.w3.org/2000/svg" xmlns:xlink="http://www.w3.org/1999/xlink" version="1.1"><path d="M0 333L21.5 321.8C43 310.7 86 288.3 128.8 277.5C171.7 266.7 214.3 267.3 257.2 270C300 272.7 343 277.3 385.8 288C428.7 298.7 471.3 315.3 514.2 313C557 310.7 600 289.3 642.8 279.7C685.7 270 728.3 272 771.2 273C814 274 857 274 878.5 274L900 274L900 0L878.5 0C857 0 814 0 771.2 0C728.3 0 685.7 0 642.8 0C600 0 557 0 514.2 0C471.3 0 428.7 0 385.8 0C343 0 300 0 257.2 0C214.3 0 171.7 0 128.8 0C86 0 43 0 21.5 0L0 0Z" fill="#c84771" stroke-linecap="round" stroke-linejoin="miter"></path></svg>